<svg xmlns="http://www.w3.org/2000/svg" xmlns:xlink="http://www.w3.org/1999/xlink" width="36" height="36" viewBox="0 0 36 36">
  <defs>
    <clipPath id="clip-path">
      <rect id="Rectangle_24" data-name="Rectangle 24" width="36" height="36" transform="translate(655 129)" fill="#4e2098"/>
    </clipPath>
  </defs>
  <g id="Mask_Group_1" data-name="Mask Group 1" transform="translate(-655 -129)" clip-path="url(#clip-path)">
    <g id="post" transform="translate(655 129)">
      <g id="Group_30" data-name="Group 30">
        <path id="Path_17" data-name="Path 17" d="M33.75,9H2.25A2.253,2.253,0,0,1,0,6.75V2.25A2.253,2.253,0,0,1,2.25,0h31.5A2.253,2.253,0,0,1,36,2.25v4.5A2.253,2.253,0,0,1,33.75,9ZM2.25,1.5a.752.752,0,0,0-.75.75v4.5a.752.752,0,0,0,.75.75h31.5a.752.752,0,0,0,.75-.75V2.25a.752.752,0,0,0-.75-.75Z" fill="#4e2098"/>
      </g>
      <g id="Group_31" data-name="Group 31">
        <path id="Path_18" data-name="Path 18" d="M33.75,36H2.25A2.253,2.253,0,0,1,0,33.75V14.25A2.253,2.253,0,0,1,2.25,12h31.5A2.253,2.253,0,0,1,36,14.25v19.5A2.253,2.253,0,0,1,33.75,36ZM2.25,13.5a.752.752,0,0,0-.75.75v19.5a.752.752,0,0,0,.75.75h31.5a.752.752,0,0,0,.75-.75V14.25a.752.752,0,0,0-.75-.75Z" fill="#4e2098"/>
      </g>
      <g id="Group_32" data-name="Group 32">
        <path id="Path_19" data-name="Path 19" d="M29.255,31.5H20.245A2.253,2.253,0,0,1,18,29.25V18.75a2.253,2.253,0,0,1,2.25-2.25h9.009a2.253,2.253,0,0,1,2.25,2.25v10.5A2.253,2.253,0,0,1,29.255,31.5ZM20.245,18a.752.752,0,0,0-.75.75v10.5a.752.752,0,0,0,.75.75h9.009a.752.752,0,0,0,.75-.75V18.75a.752.752,0,0,0-.75-.75Z" fill="#4e2098"/>
      </g>
      <g id="Group_33" data-name="Group 33">
        <path id="Path_20" data-name="Path 20" d="M14.245,19.5h-9a.75.75,0,0,1,0-1.5h9a.75.75,0,0,1,0,1.5Z" fill="#4e2098"/>
      </g>
      <g id="Group_34" data-name="Group 34">
        <path id="Path_21" data-name="Path 21" d="M14.245,24h-9a.75.75,0,0,1,0-1.5h9a.75.75,0,0,1,0,1.5Z" fill="#4e2098"/>
      </g>
      <g id="Group_35" data-name="Group 35">
        <path id="Path_22" data-name="Path 22" d="M14.245,28.5h-9a.75.75,0,0,1,0-1.5h9a.75.75,0,0,1,0,1.5Z" fill="#4e2098"/>
      </g>
    </g>
  </g>
</svg>
